<svg width="20" height="20" viewBox="0 0 20 20" fill="none" xmlns="http://www.w3.org/2000/svg">
<path d="M12.4773 2.85988C10.8475 2.48116 9.15248 2.48116 7.52264 2.85988C6.5813 2.28255 5.86264 2.01722 5.33997 1.90522C5.11689 1.85487 4.88863 1.83115 4.65997 1.83455C4.55592 1.83737 4.45237 1.84987 4.35064 1.87188L4.3373 1.87455L4.33197 1.87722H4.32797L4.51064 2.51855L4.32797 1.87855C4.2343 1.90502 4.14756 1.95168 4.07385 2.01526C4.00014 2.07883 3.94124 2.15778 3.9013 2.24655C3.50793 3.12749 3.43299 4.11777 3.6893 5.04788C3.02548 5.85236 2.66373 6.86356 2.66664 7.90655C2.66664 9.97721 3.2773 11.3692 4.31864 12.2639C5.04797 12.8905 5.9333 13.2239 6.8213 13.4145C6.68156 13.825 6.62889 14.26 6.66664 14.6919V15.4892C6.12397 15.6025 5.74797 15.5665 5.47997 15.4785C5.1453 15.3679 4.88797 15.1452 4.6413 14.8252C4.51236 14.6527 4.3922 14.4738 4.2813 14.2892L4.2053 14.1652C4.10934 14.0056 4.00976 13.8483 3.90664 13.6932C3.6533 13.3185 3.2773 12.8492 2.6693 12.6892L2.02397 12.5199L1.6853 13.8105L2.33064 13.9799C2.4373 14.0065 2.57597 14.1065 2.80397 14.4412C2.89173 14.5733 2.9762 14.7076 3.0573 14.8439L3.14797 14.9905C3.2733 15.1932 3.4173 15.4172 3.58397 15.6359C3.9213 16.0759 4.3813 16.5199 5.06397 16.7452C5.53064 16.8999 6.0613 16.9372 6.66664 16.8439V19.3332C6.66664 19.51 6.73687 19.6796 6.8619 19.8046C6.98692 19.9296 7.15649 19.9999 7.3333 19.9999H12.6666C12.8434 19.9999 13.013 19.9296 13.138 19.8046C13.2631 19.6796 13.3333 19.51 13.3333 19.3332V14.5825C13.3333 14.1625 13.3146 13.7772 13.196 13.4185C14.08 13.2319 14.9586 12.8985 15.684 12.2719C16.724 11.3705 17.3333 9.96522 17.3333 7.88255V7.88122C17.3299 6.84676 16.9681 5.84546 16.3093 5.04788C16.5653 4.11819 16.4904 3.12843 16.0973 2.24788C16.0577 2.15901 15.999 2.07989 15.9256 2.01608C15.8521 1.95228 15.7655 1.90534 15.672 1.87855L15.4893 2.51855C15.672 1.87855 15.6706 1.87855 15.6693 1.87855L15.6666 1.87722L15.6613 1.87455L15.6493 1.87188C15.6164 1.86332 15.583 1.85664 15.5493 1.85188C15.4795 1.84169 15.4092 1.8359 15.3386 1.83455C15.11 1.83117 14.8817 1.85489 14.6586 1.90522C14.1373 2.01722 13.4186 2.28255 12.4773 2.85988Z" fill="white"/>
</svg>
