<svg width="20" height="20" viewBox="0 0 20 20" fill="none" xmlns="http://www.w3.org/2000/svg">
<path d="M10.2034 3.33325C10.6484 3.33575 11.7617 3.34659 12.9451 3.39409L13.3651 3.41242C14.5559 3.46825 15.7459 3.56492 16.3367 3.72909C17.1242 3.95075 17.7426 4.59575 17.9517 5.41409C18.2851 6.71409 18.3267 9.24909 18.3317 9.86325L18.3326 9.98992V10.1349C18.3267 10.7491 18.2851 13.2849 17.9517 14.5841C17.7401 15.4049 17.1209 16.0508 16.3367 16.2691C15.7459 16.4333 14.5559 16.5299 13.3651 16.5858L12.9451 16.6049C11.7617 16.6516 10.6484 16.6633 10.2034 16.6649L10.0076 16.6658H9.79508C8.85342 16.6599 4.91508 16.6174 3.66175 16.2691C2.87508 16.0474 2.25591 15.4024 2.04675 14.5841C1.71341 13.2841 1.67175 10.7491 1.66675 10.1349V9.86325C1.67175 9.24909 1.71341 6.71325 2.04675 5.41409C2.25841 4.59325 2.87758 3.94742 3.66258 3.72992C4.91508 3.38075 8.85425 3.33825 9.79592 3.33325H10.2034ZM8.33258 7.08325V12.9166L13.3326 9.99992L8.33258 7.08325Z" fill="white"/>
</svg>
